<svg width="54" height="54" viewBox="0 0 54 54" fill="none" xmlns="http://www.w3.org/2000/svg">
<rect width="54" height="54" rx="9" fill="#0088FF"/>
<rect x="4.5" y="4.5" width="45" height="45" rx="9" fill="#0958D9" fill-opacity="0.85"/>
<path d="M33.0355 32.0893C32.0812 32.0893 31.2006 32.4241 30.5109 32.9833L23.5734 27.9643C23.6896 27.3267 23.6896 26.6733 23.5734 26.0357L30.5109 21.0167C31.2006 21.5759 32.0812 21.9107 33.0355 21.9107C35.252 21.9107 37.0533 20.1094 37.0533 17.8929C37.0533 15.6763 35.252 13.875 33.0355 13.875C30.8189 13.875 29.0176 15.6763 29.0176 17.8929C29.0176 18.2813 29.0712 18.6529 29.175 19.0078L22.5857 23.779C21.608 22.4833 20.0544 21.6429 18.3033 21.6429C15.3435 21.6429 12.9462 24.0402 12.9462 27C12.9462 29.9598 15.3435 32.3571 18.3033 32.3571C20.0544 32.3571 21.608 31.5167 22.5857 30.221L29.175 34.9922C29.0712 35.3471 29.0176 35.7221 29.0176 36.1071C29.0176 38.3237 30.8189 40.125 33.0355 40.125C35.252 40.125 37.0533 38.3237 37.0533 36.1071C37.0533 33.8906 35.252 32.0893 33.0355 32.0893ZM33.0355 16.1518C33.9964 16.1518 34.7765 16.9319 34.7765 17.8929C34.7765 18.8538 33.9964 19.6339 33.0355 19.6339C32.0745 19.6339 31.2944 18.8538 31.2944 17.8929C31.2944 16.9319 32.0745 16.1518 33.0355 16.1518ZM18.3033 29.9464C16.6794 29.9464 15.3569 28.6239 15.3569 27C15.3569 25.3761 16.6794 24.0536 18.3033 24.0536C19.9272 24.0536 21.2497 25.3761 21.2497 27C21.2497 28.6239 19.9272 29.9464 18.3033 29.9464ZM33.0355 37.8482C32.0745 37.8482 31.2944 37.0681 31.2944 36.1071C31.2944 35.1462 32.0745 34.3661 33.0355 34.3661C33.9964 34.3661 34.7765 35.1462 34.7765 36.1071C34.7765 37.0681 33.9964 37.8482 33.0355 37.8482Z" fill="white"/>
</svg>
