<svg width="54" height="54" viewBox="0 0 54 54" fill="none" xmlns="http://www.w3.org/2000/svg">
<rect width="54" height="54" rx="9" fill="#0088FF"/>
<rect x="4.5" y="4.5" width="45" height="45" rx="9" fill="#0958D9" fill-opacity="0.85"/>
<path d="M27 13.875L15.75 17.625V28.875C15.75 35.0889 20.7861 40.125 27 40.125C33.2139 40.125 38.25 35.0889 38.25 28.875V17.625L27 13.875ZM36.1406 28.875C36.1406 33.9229 32.0479 38.0156 27 38.0156C21.9521 38.0156 17.8594 33.9229 17.8594 28.875V19.207L27 15.9844L36.1406 19.207V28.875Z" fill="white" fill-opacity="0.85"/>
<path d="M23.0845 25.9154C22.9868 25.8172 22.8706 25.7393 22.7426 25.6861C22.6147 25.6329 22.4775 25.6056 22.3389 25.6056C22.2004 25.6056 22.0632 25.6329 21.9352 25.6861C21.8073 25.7393 21.6911 25.8172 21.5933 25.9154C21.4951 26.0131 21.4172 26.1293 21.364 26.2573C21.3109 26.3852 21.2835 26.5224 21.2835 26.661C21.2835 26.7996 21.3109 26.9367 21.364 27.0647C21.4172 27.1927 21.4951 27.3088 21.5933 27.4066L25.4459 31.2591C25.5383 31.3518 25.6482 31.4253 25.7691 31.4754C25.89 31.5256 26.0196 31.5514 26.1505 31.5514C26.2813 31.5514 26.4109 31.5256 26.5318 31.4754C26.6527 31.4253 26.7626 31.3518 26.855 31.2591L33.4029 24.7113C33.4955 24.6188 33.569 24.509 33.6192 24.3881C33.6693 24.2672 33.6951 24.1376 33.6951 24.0067C33.6951 23.8758 33.6693 23.7462 33.6192 23.6253C33.569 23.5044 33.4955 23.3946 33.4029 23.3021L33.3209 23.2201C33.2284 23.1274 33.1186 23.0539 32.9977 23.0038C32.8768 22.9536 32.7472 22.9278 32.6163 22.9278C32.4854 22.9278 32.3558 22.9536 32.2349 23.0038C32.114 23.0539 32.0041 23.1274 31.9117 23.2201L26.149 28.9798L23.0845 25.9154Z" fill="white" fill-opacity="0.85"/>
</svg>
