<svg width="54" height="54" viewBox="0 0 54 54" fill="none" xmlns="http://www.w3.org/2000/svg">
<rect width="54" height="54" rx="9" fill="#0088FF"/>
<rect x="4.5" y="4.5" width="45" height="45" rx="9" fill="#0958D9" fill-opacity="0.85"/>
<path d="M19.5666 17.7718L21.0364 16.302C21.0718 16.2664 21.0965 16.2216 21.1077 16.1726C21.1189 16.1237 21.1162 16.0726 21.0998 16.0252C21.0834 15.9777 21.054 15.9359 21.015 15.9043C20.976 15.8727 20.9289 15.8527 20.8791 15.8466L15.5152 15.2138C15.3445 15.1937 15.1971 15.3377 15.2172 15.5118L15.85 20.8756C15.8768 21.0966 16.148 21.1904 16.3054 21.033L17.7686 19.5698L22.2451 24.043C22.3489 24.1468 22.5197 24.1468 22.6235 24.043L24.0431 22.6267C24.1469 22.5229 24.1469 22.3522 24.0431 22.2484L19.5666 17.7718ZM31.3757 24.043C31.4795 24.1468 31.6503 24.1468 31.7541 24.043L36.2306 19.5698L37.6938 21.033C37.7294 21.0684 37.7742 21.0931 37.8231 21.1043C37.872 21.1155 37.9231 21.1128 37.9706 21.0964C38.018 21.08 38.0599 21.0506 38.0915 21.0116C38.123 20.9725 38.143 20.9254 38.1491 20.8756L38.782 15.5151C38.802 15.3444 38.6581 15.1971 38.484 15.2171L33.1201 15.85C32.8991 15.8767 32.8054 16.1479 32.9628 16.3053L34.4326 17.7752L29.9561 22.245C29.9062 22.2954 29.8783 22.3634 29.8783 22.4342C29.8783 22.5051 29.9062 22.573 29.9561 22.6234L31.3757 24.043ZM38.1491 33.1234C38.1224 32.9024 37.8512 32.8087 37.6938 32.966L36.2306 34.4292L31.7541 29.956C31.7037 29.9061 31.6357 29.8782 31.5649 29.8782C31.494 29.8782 31.426 29.9061 31.3757 29.956L29.9561 31.3723C29.9062 31.4226 29.8783 31.4906 29.8783 31.5614C29.8783 31.6323 29.9062 31.7003 29.9561 31.7506L34.4326 36.2272L32.9628 37.697C32.9274 37.7326 32.9026 37.7774 32.8914 37.8264C32.8802 37.8753 32.883 37.9264 32.8994 37.9738C32.9158 38.0213 32.9452 38.0631 32.9842 38.0947C33.0232 38.1263 33.0703 38.1463 33.1201 38.1524L38.484 38.7852C38.6547 38.8053 38.802 38.6613 38.782 38.4872L38.1491 33.1234ZM22.6235 29.956C22.5731 29.9061 22.5051 29.8782 22.4343 29.8782C22.3635 29.8782 22.2955 29.9061 22.2451 29.956L17.7686 34.4292L16.3054 32.966C16.2698 32.9306 16.225 32.9059 16.1761 32.8947C16.1272 32.8835 16.0761 32.8863 16.0286 32.9026C15.9812 32.919 15.9393 32.9484 15.9077 32.9874C15.8761 33.0265 15.8562 33.0736 15.85 33.1234L15.2172 38.4839C15.1971 38.6546 15.3411 38.802 15.5152 38.7819L20.8791 38.1491C21.1 38.1223 21.1938 37.8511 21.0364 37.6937L19.5666 36.2272L24.0431 31.754C24.1469 31.6502 24.1469 31.4794 24.0431 31.3756L22.6235 29.956Z" fill="white" fill-opacity="0.85"/>
</svg>
