<svg width="96" height="96" viewBox="0 0 96 96" fill="none" xmlns="http://www.w3.org/2000/svg">
<g filter="url(#filter0_dd_17_24932)">
<ellipse cx="48" cy="47.9998" rx="37.0909" ry="37.0909" fill="#0958D9"/>
</g>
<path d="M64.2331 35.392H42.3175C41.5992 35.392 41.0188 35.9723 41.0188 36.6907V46.2686H31.4409C30.7226 46.2686 30.1422 46.849 30.1422 47.5673V58.6063C30.1422 59.3246 30.7226 59.905 31.4409 59.905H53.3565C54.0748 59.905 54.6552 59.3246 54.6552 58.6063V49.0284H64.2331C64.9514 49.0284 65.5318 48.448 65.5318 47.7296V36.6907C65.5318 35.9723 64.9514 35.392 64.2331 35.392ZM43.7786 38.1517H51.8954V46.2686H43.7786V38.1517ZM41.0188 57.1452H32.9019V49.0284H41.0188V57.1452ZM51.8954 57.1452H43.7786V49.0284H51.8954V57.1452ZM62.7721 46.2686H54.6552V38.1517H62.7721V46.2686Z" fill="white" fill-opacity="0.85"/>
<defs>
<filter id="filter0_dd_17_24932" x="-1.20413e-05" y="-0.000196996" width="96" height="96.0004" filterUnits="userSpaceOnUse" color-interpolation-filters="sRGB">
<feFlood flood-opacity="0" result="BackgroundImageFix"/>
<feColorMatrix in="SourceAlpha" type="matrix" values="0 0 0 0 0 0 0 0 0 0 0 0 0 0 0 0 0 0 127 0" result="hardAlpha"/>
<feMorphology radius="3.6" operator="dilate" in="SourceAlpha" result="effect1_dropShadow_17_24932"/>
<feOffset dx="3.6" dy="3.6"/>
<feGaussianBlur stdDeviation="1.8"/>
<feComposite in2="hardAlpha" operator="out"/>
<feColorMatrix type="matrix" values="0 0 0 0 0.396078 0 0 0 0 0.568627 0 0 0 0 1 0 0 0 0.2 0"/>
<feBlend mode="normal" in2="BackgroundImageFix" result="effect1_dropShadow_17_24932"/>
<feColorMatrix in="SourceAlpha" type="matrix" values="0 0 0 0 0 0 0 0 0 0 0 0 0 0 0 0 0 0 127 0" result="hardAlpha"/>
<feMorphology radius="3.6" operator="dilate" in="SourceAlpha" result="effect2_dropShadow_17_24932"/>
<feOffset dx="-3.6" dy="-3.6"/>
<feGaussianBlur stdDeviation="1.8"/>
<feComposite in2="hardAlpha" operator="out"/>
<feColorMatrix type="matrix" values="0 0 0 0 0.396078 0 0 0 0 0.568627 0 0 0 0 1 0 0 0 0.2 0"/>
<feBlend mode="normal" in2="effect1_dropShadow_17_24932" result="effect2_dropShadow_17_24932"/>
<feBlend mode="normal" in="SourceGraphic" in2="effect2_dropShadow_17_24932" result="shape"/>
</filter>
</defs>
</svg>
