<svg width="54" height="54" viewBox="0 0 54 54" fill="none" xmlns="http://www.w3.org/2000/svg">
<rect width="54" height="54" rx="9" fill="#0088FF"/>
<rect x="4.5" y="4.5" width="45" height="45" rx="9" fill="#0958D9" fill-opacity="0.85"/>
<path d="M31.3063 24.2499H39.9146C40.1791 24.2499 40.3934 24.0356 40.3934 23.7711V15.1595C40.3934 14.8949 40.1791 14.6807 39.9146 14.6807H31.3063C31.0418 14.6807 30.8275 14.8949 30.8275 15.1595V18.2699H26.284C26.1534 18.2699 26.0463 18.3771 26.0463 18.5077V25.924H23.1769V22.6929C23.1769 22.4284 22.9626 22.2141 22.6981 22.2141H14.0865C13.822 22.2141 13.6077 22.4284 13.6077 22.6929V31.3046C13.6077 31.5691 13.822 31.7833 14.0865 31.7833H22.6947C22.9592 31.7833 23.1735 31.5691 23.1735 31.3046V28.0735H26.0429V35.4898C26.0429 35.6204 26.1501 35.7275 26.2807 35.7275H30.8242V38.838C30.8242 39.1025 31.0385 39.3168 31.303 39.3168H39.9112C40.1757 39.3168 40.39 39.1025 40.39 38.838V30.2331C40.39 29.9686 40.1757 29.7543 39.9112 29.7543H31.3063C31.0418 29.7543 30.8275 29.9686 30.8275 30.2331V33.5813H28.1958V20.4229H30.8275V23.7711C30.8275 24.0356 31.0418 24.2499 31.3063 24.2499ZM33.0976 16.9541H38.1199V21.9798H33.0976V16.9541ZM20.9034 29.5133H15.8811V24.4909H20.9034V29.5133ZM33.0976 32.0278H38.1199V37.0534H33.0976V32.0278Z" fill="white" fill-opacity="0.85"/>
</svg>
