<svg width="96" height="96" viewBox="0 0 96 96" fill="none" xmlns="http://www.w3.org/2000/svg">
<g filter="url(#filter0_dd_17_24926)">
<ellipse cx="48" cy="47.9998" rx="37.0909" ry="37.0909" fill="#0958D9"/>
</g>
<path d="M57.0915 33.3932C54.5834 33.3932 52.546 35.4305 52.546 37.9387C52.546 39.9719 53.8894 41.6968 55.7319 42.2771V46.1692L40.046 51.3072V39.769C41.8399 39.1603 43.1305 37.4598 43.1305 35.463C43.1305 32.9549 41.0931 30.9176 38.585 30.9176C36.0769 30.9176 34.0395 32.9549 34.0395 35.463C34.0395 37.4598 35.3301 39.1562 37.124 39.769V55.5117C35.3301 56.1205 34.0395 57.821 34.0395 59.8177C34.0395 62.3258 36.0769 64.3632 38.585 64.3632C41.0931 64.3632 43.1305 62.3258 43.1305 59.8177C43.1305 57.821 41.8399 56.1245 40.046 55.5117V54.3835L57.2335 48.7544C57.6463 48.6202 58.0058 48.3585 58.2603 48.007C58.5148 47.6555 58.6513 47.2322 58.6499 46.7982V42.2081C60.391 41.5669 61.6369 39.8948 61.6369 37.9387C61.6369 35.4305 59.5996 33.3932 57.0915 33.3932ZM36.6369 35.463C36.6474 34.9532 36.8572 34.4679 37.2214 34.111C37.5856 33.7542 38.0751 33.5543 38.585 33.5543C39.0949 33.5543 39.5844 33.7542 39.9486 34.111C40.3128 34.4679 40.5226 34.9532 40.5331 35.463C40.5226 35.9728 40.3128 36.4582 39.9486 36.815C39.5844 37.1718 39.0949 37.3717 38.585 37.3717C38.0751 37.3717 37.5856 37.1718 37.2214 36.815C36.8572 36.4582 36.6474 35.9728 36.6369 35.463ZM40.5331 59.8137C40.5226 60.3234 40.3128 60.8088 39.9486 61.1656C39.5844 61.5225 39.0949 61.7223 38.585 61.7223C38.0751 61.7223 37.5856 61.5225 37.2214 61.1656C36.8572 60.8088 36.6474 60.3234 36.6369 59.8137C36.6474 59.3039 36.8572 58.8185 37.2214 58.4617C37.5856 58.1048 38.0751 57.905 38.585 57.905C39.0949 57.905 39.5844 58.1048 39.9486 58.4617C40.3128 58.8185 40.5226 59.3039 40.5331 59.8137ZM57.0915 39.8867C56.5817 39.8763 56.0963 39.6665 55.7395 39.3023C55.3827 38.9381 55.1828 38.4485 55.1828 37.9387C55.1828 37.4288 55.3827 36.9392 55.7395 36.575C56.0963 36.2108 56.5817 36.001 57.0915 35.9906C57.6013 36.001 58.0866 36.2108 58.4435 36.575C58.8003 36.9392 59.0002 37.4288 59.0002 37.9387C59.0002 38.4485 58.8003 38.9381 58.4435 39.3023C58.0866 39.6665 57.6013 39.8763 57.0915 39.8867Z" fill="white" fill-opacity="0.85"/>
<defs>
<filter id="filter0_dd_17_24926" x="3.37157e-06" y="-0.000196996" width="96" height="96.0004" filterUnits="userSpaceOnUse" color-interpolation-filters="sRGB">
<feFlood flood-opacity="0" result="BackgroundImageFix"/>
<feColorMatrix in="SourceAlpha" type="matrix" values="0 0 0 0 0 0 0 0 0 0 0 0 0 0 0 0 0 0 127 0" result="hardAlpha"/>
<feMorphology radius="3.6" operator="dilate" in="SourceAlpha" result="effect1_dropShadow_17_24926"/>
<feOffset dx="3.6" dy="3.6"/>
<feGaussianBlur stdDeviation="1.8"/>
<feComposite in2="hardAlpha" operator="out"/>
<feColorMatrix type="matrix" values="0 0 0 0 0.396078 0 0 0 0 0.568627 0 0 0 0 1 0 0 0 0.2 0"/>
<feBlend mode="normal" in2="BackgroundImageFix" result="effect1_dropShadow_17_24926"/>
<feColorMatrix in="SourceAlpha" type="matrix" values="0 0 0 0 0 0 0 0 0 0 0 0 0 0 0 0 0 0 127 0" result="hardAlpha"/>
<feMorphology radius="3.6" operator="dilate" in="SourceAlpha" result="effect2_dropShadow_17_24926"/>
<feOffset dx="-3.6" dy="-3.6"/>
<feGaussianBlur stdDeviation="1.8"/>
<feComposite in2="hardAlpha" operator="out"/>
<feColorMatrix type="matrix" values="0 0 0 0 0.396078 0 0 0 0 0.568627 0 0 0 0 1 0 0 0 0.2 0"/>
<feBlend mode="normal" in2="effect1_dropShadow_17_24926" result="effect2_dropShadow_17_24926"/>
<feBlend mode="normal" in="SourceGraphic" in2="effect2_dropShadow_17_24926" result="shape"/>
</filter>
</defs>
</svg>
