<svg width="54" height="54" viewBox="0 0 54 54" fill="none" xmlns="http://www.w3.org/2000/svg">
<rect width="54" height="54" rx="9" fill="#0088FF"/>
<rect x="4.5" y="4.5" width="45" height="45" rx="9" fill="#0958D9" fill-opacity="0.85"/>
<path d="M39.2063 17.8706C39.1895 17.8405 39.1661 17.8104 39.1393 17.7869C38.9719 17.6195 38.7007 17.6195 38.5333 17.7869L32.7643 23.5559L30.4909 21.2825L36.2632 15.5102C36.29 15.4834 36.3101 15.4566 36.3302 15.4265C36.4507 15.2222 36.3837 14.961 36.1795 14.8405C32.8916 12.8985 28.5858 13.3439 25.7565 16.1698C23.5132 18.4131 22.7699 21.5939 23.53 24.4532L13.7197 34.2635C13.6192 34.364 13.6259 34.528 13.7297 34.6318L19.4116 40.3137C19.5154 40.4175 19.6829 40.4242 19.78 40.3238L29.5869 30.5169C32.4496 31.2802 35.6304 30.5403 37.8771 28.2936C40.7029 25.4644 41.1483 21.1586 39.2063 17.8706ZM36.1728 26.5861C34.2275 28.5314 31.3079 28.9064 28.9875 27.7111L28.6929 28.0057L28.6896 28.0023L19.5154 37.1798L16.8637 34.528L24.5679 26.8238C24.5679 26.8238 24.5679 26.8271 24.5712 26.8271L26.3391 25.0593C25.1438 22.739 25.5188 19.8193 27.4641 17.874C28.0915 17.246 28.8471 16.7609 29.6792 16.4517C30.5113 16.1426 31.4003 16.0167 32.2855 16.0827L27.8358 20.5291C27.6348 20.7303 27.5219 21.0031 27.5219 21.2875C27.5219 21.5719 27.6348 21.8447 27.8358 22.0459L32.0043 26.2144C32.2055 26.4154 32.4783 26.5283 32.7627 26.5283C33.047 26.5283 33.3198 26.4154 33.521 26.2144L37.9675 21.768C38.0913 23.5023 37.4853 25.2769 36.1728 26.5861Z" fill="white" fill-opacity="0.85"/>
</svg>
