<svg width="54" height="54" viewBox="0 0 54 54" fill="none" xmlns="http://www.w3.org/2000/svg">
<rect width="54" height="54" rx="9" fill="#0088FF"/>
<rect x="4.5" y="4.5" width="45" height="45" rx="9" fill="#0958D9" fill-opacity="0.85"/>
<path d="M38.0992 34.5399C37.684 32.0221 35.4474 30.2174 32.8994 30.3413C30.3514 30.4651 28.3023 32.4841 28.1382 35.0288C22.9987 34.868 21.1739 33.666 21.4719 31.2218C21.5824 30.3078 22.1349 29.8189 23.1494 29.5812C23.7654 29.4372 24.4485 29.4172 25.0679 29.4741C25.1248 29.4808 25.1851 29.4841 25.242 29.4908C25.6204 29.5812 26.0054 29.6582 26.3904 29.7185C27.5322 29.906 28.694 29.9997 29.7989 29.9395C32.9061 29.7721 35.0221 28.4026 35.1293 25.4964C35.2331 22.6805 33.2978 20.685 30.1773 19.3491C29.1762 18.9205 28.1148 18.589 27.0534 18.3379C26.5746 18.2241 26.1728 18.1471 25.8748 18.0968C25.6103 15.5555 23.4808 13.6169 20.9262 13.5968C18.3715 13.5767 16.2085 15.4752 15.9005 18.0131C15.5925 20.5511 17.2398 22.9116 19.7242 23.5009C22.2085 24.0901 24.7431 22.7207 25.607 20.3167C25.9217 20.3736 26.2331 20.4372 26.5445 20.5109C27.4887 20.7319 28.4329 21.0265 29.3034 21.4015C31.6706 22.4127 32.963 23.7486 32.9027 25.416C32.8492 26.9093 31.7777 27.5991 29.6817 27.7129C28.761 27.7631 27.7532 27.6828 26.7588 27.5187C26.4808 27.4718 26.2264 27.425 26.0021 27.3747C25.8715 27.348 25.7811 27.3245 25.7409 27.3145L25.6371 27.2944C25.5634 27.2843 25.4396 27.2676 25.2788 27.2509C24.4418 27.1738 23.5344 27.2006 22.6505 27.4049C20.8023 27.8368 19.5065 28.9852 19.2654 30.9473C18.7398 35.1727 21.8971 37.1314 28.5065 37.2721C29.4808 39.6292 32.069 40.8848 34.5199 40.185C36.9742 39.4852 38.5143 37.0578 38.0992 34.5399ZM20.8759 21.4082C20.5097 21.4082 20.147 21.336 19.8086 21.1958C19.4702 21.0556 19.1627 20.8502 18.9037 20.5912C18.6447 20.3321 18.4393 20.0246 18.2991 19.6862C18.159 19.3478 18.0869 18.9851 18.0869 18.6188C18.0869 18.2525 18.1591 17.8898 18.2993 17.5514C18.4394 17.213 18.6449 16.9056 18.9039 16.6466C19.163 16.3876 19.4705 16.1822 19.8089 16.042C20.1473 15.9019 20.51 15.8297 20.8763 15.8298C21.616 15.8298 22.3255 16.1237 22.8485 16.6468C23.3716 17.1699 23.6654 17.8794 23.6653 18.6192C23.6653 19.3589 23.3714 20.0683 22.8483 20.5914C22.3252 21.1144 21.6157 21.4083 20.8759 21.4082ZM33.1471 38.1426C32.7809 38.1426 32.4182 38.0704 32.0798 37.9302C31.7414 37.79 31.4339 37.5846 31.1749 37.3255C30.9159 37.0665 30.7105 36.759 30.5703 36.4206C30.4302 36.0822 30.3581 35.7195 30.3581 35.3532C30.3581 34.9869 30.4303 34.6242 30.5705 34.2858C30.7107 33.9474 30.9161 33.64 31.1751 33.381C31.4342 33.122 31.7417 32.9165 32.0801 32.7764C32.4185 32.6362 32.7812 32.5641 33.1475 32.5641C33.8872 32.5642 34.5967 32.8581 35.1197 33.3812C35.6428 33.9043 35.9366 34.6138 35.9365 35.3535C35.9365 36.0933 35.6426 36.8027 35.1195 37.3258C34.5964 37.8488 33.8869 38.1426 33.1471 38.1426Z" fill="white" fill-opacity="0.85"/>
</svg>
